<svg xmlns="http://www.w3.org/2000/svg" viewBox="0 0 500 160"><g stroke-width=".992" fill="#86c540"><g stroke-width=".985"><path d="M94.21 120.984c3.927-4.413 6.002-10.863 6.002-19.55v-48.53h-8.293v7.594h-.102c-1.57-2.94-3.754-5.146-6.552-6.618-2.799-1.47-5.872-2.206-9.216-2.206-4.573 0-8.43.872-11.57 2.617-3.138 1.744-5.666 3.986-7.576 6.722a27.057 27.057 0 0 0-4.096 9.031c-.82 3.285-1.229 6.5-1.229 9.647 0 3.626.494 7.066 1.485 10.314.988 3.25 2.473 6.106 4.453 8.57 1.979 2.462 4.437 4.413 7.372 5.85 2.934 1.437 6.382 2.155 10.343 2.155 1.638 0 3.293-.205 4.964-.616a20 20 0 0 0 4.711-1.796 15.976 15.976 0 0 0 3.943-2.975c1.16-1.197 2.115-2.617 2.868-4.259h.201v3.488c0 3.01-.29 5.746-.87 8.21-.58 2.463-1.52 4.568-2.815 6.311-1.297 1.745-2.937 3.112-4.913 4.107-1.981.99-4.403 1.488-7.268 1.488-1.434 0-2.937-.155-4.507-.462a17.332 17.332 0 0 1-1.652-.408c-.582-.206-1.16-.415-1.732-.628a16.847 16.847 0 0 1-.16-.07v.01c-22.487-8.418-37.296-22.73-37.296-38.983 0-25.904 37.643-46.902 84.091-46.902 25.872 0 49.083 5.906 64.486 16.156C162.445 32.076 132.248 20 97.744 20 44.884 19.99 2.027 46.85 2 79.968c-.003 22.616 19.963 42.316 49.455 52.555 23.655.812 35.648-3.589 42.724-11.538zm-3.57-35.25c-.58 2.462-1.485 4.668-2.714 6.618a14.28 14.28 0 0 1-4.863 4.72c-2.014 1.197-4.453 1.795-7.32 1.795-2.869 0-5.258-.598-7.168-1.796a13.824 13.824 0 0 1-4.607-4.72c-1.162-1.949-1.98-4.12-2.458-6.516a36.602 36.602 0 0 1-.716-7.184c0-2.53.29-4.96.87-7.287.58-2.325 1.5-4.378 2.764-6.157 1.262-1.778 2.884-3.197 4.863-4.258 1.979-1.06 4.368-1.59 7.167-1.59 2.73 0 5.049.548 6.962 1.642a13.59 13.59 0 0 1 4.658 4.362c1.193 1.813 2.064 3.847 2.61 6.106.546 2.258.82 4.551.82 6.877a32.17 32.17 0 0 1-.87 7.388zM98.227 125.996c-5.015 4.563-13.975 9.773-26.177 11.818C80.22 139.238 88.826 140 97.719 140c34.37.007 64.485-12.023 81.378-29.09-15.424 10.188-38.52 15.985-64.3 15.985-6.123 0-10.808-.216-16.56-.91z"/></g><path d="M151.167 106.105h-12.493V63.922H123V53.195h43.841v10.727h-15.674zM185.857 106.105h-12.495V53.203h38.574V63.93H185.86v9.9h22.825v10.728H185.86zM107.485 40.004h8.702v65.941h-8.702z"/><g stroke-width=".985"><path d="M222.122 54.75h-1.973v5.093h-1.706V54.75h-1.947v-1.467h5.626zM228.575 54.856l-1.386 4.987h-1.307l-1.36-4.987h-.027v4.987h-1.626v-6.56h2.533l1.12 4.373h.027l1.146-4.373h2.507v6.56h-1.6v-4.987z"/></g></g><g stroke-width="2.062"><path d="M430.055 3l68.055 38.5v77L430.055 157 362 118.5v-77z" fill="#fff"/><path d="M485.957 115.843l-53.656 30.351v-23.639l33.43-18.39zm3.67-3.323V49.046l-19.634 11.332v40.797zm-115.692 3.323l53.656 30.351v-23.639l-33.43-18.39zm-3.67-3.323V49.046L389.9 60.378v40.797zm2.297-67.58l55.03-31.134v22.856l-35.254 19.391-.27.154zm114.768 0l-55.029-31.134v22.856l35.253 19.391.27.154z" fill="#8ed6fb"/><path d="M427.591 117.178L394.61 99.045V63.11l32.981 19.045zm4.71 0l32.982-18.133V63.11L432.3 82.156zm-35.458-58.225l33.11-18.21 33.11 18.21-33.11 19.122z" fill="#1c78c0"/></g><path d="M292 62v15h-15v6h15v15h6V83h15v-6h-15V62h-6z" color="#000" fill="#abb2bf"/></svg>
